<svg width="37" height="22" viewBox="0 0 37 22" fill="none" xmlns="http://www.w3.org/2000/svg">
<path fill-rule="evenodd" clip-rule="evenodd" d="M20.2764 18.8969C18.4939 17.5582 17.3207 15.9412 16.7566 13.4292C17.6892 14.5649 19.2686 15.4147 20.9231 15.4147C23.7585 15.4147 25.9019 13.2262 25.9019 10.5187C25.9019 7.81115 23.7585 5.70532 20.9231 5.70532C19.261 5.70532 17.6817 6.51757 16.7942 7.81115C17.2831 5.58498 18.5315 4.17107 20.2764 2.74963L28.1657 10.3983L20.2764 18.8969ZM23.3148 20.6342C24.2474 20.8372 25.5409 21.3186 26.5939 21.3186C32.2194 21.3186 36.9952 16.7083 36.9952 10.8797C36.9952 5.051 32.2194 0.515938 26.5939 0.515938C25.5033 0.515938 24.4053 0.673876 23.4351 1.0424L33.2272 10.4284L23.3148 20.6267V20.6342Z" fill="white"/>
<path fill-rule="evenodd" clip-rule="evenodd" d="M2.79034 0.395622H7.52848L17.9674 11L7.52848 21.5217L2.79034 21.6044L13.0713 10.9173L2.79034 0.395622Z" fill="white"/>
<path fill-rule="evenodd" clip-rule="evenodd" d="M5.42265 5.5399C8.37834 5.5399 10.8076 7.8864 10.8076 10.8045C10.8076 13.7226 8.37834 16.024 5.42265 16.024C2.46696 16.024 0.00012207 13.6774 0.00012207 10.8045C0.00012207 7.93153 2.42936 5.5399 5.42265 5.5399Z" fill="white"/>
</svg>
