<svg width="340" height="46" viewBox="0 0 340 46" fill="none" xmlns="http://www.w3.org/2000/svg">
<path fill-rule="evenodd" clip-rule="evenodd" d="M42.6243 40.1568C38.9093 37.3666 36.464 33.9965 35.2884 28.761C37.2321 31.128 40.5239 32.8992 43.9724 32.8992C49.8818 32.8992 54.3492 28.3378 54.3492 22.6948C54.3492 17.0518 49.8818 12.6628 43.9724 12.6628C40.5082 12.6628 37.2164 14.3557 35.3668 17.0518C36.3856 12.412 38.9877 9.46512 42.6243 6.50255L59.0674 22.444L42.6243 40.1568ZM48.957 43.7777C50.9007 44.2009 53.5968 45.2041 55.7913 45.2041C67.5162 45.2041 77.4698 35.5953 77.4698 23.4472C77.4698 11.2991 67.5162 1.84708 55.7913 1.84708C53.5184 1.84708 51.2299 2.17625 49.2078 2.94433L69.6166 22.5067L48.957 43.762V43.7777Z" fill="white"/>
<path fill-rule="evenodd" clip-rule="evenodd" d="M6.17979 1.59628H16.055L37.8119 23.698L16.055 45.6273L6.17979 45.7998L27.6075 23.5256L6.17979 1.59628Z" fill="white"/>
<path fill-rule="evenodd" clip-rule="evenodd" d="M11.6661 12.3181C17.8264 12.3181 22.8894 17.2087 22.8894 23.2905C22.8894 29.3724 17.8264 34.169 11.6661 34.169C5.50587 34.169 0.364456 29.2784 0.364456 23.2905C0.364456 17.3027 5.42749 12.3181 11.6661 12.3181Z" fill="white"/>
<path fill-rule="evenodd" clip-rule="evenodd" d="M106.484 1.612C94.3672 1.612 84.539 11.4402 84.539 23.557C84.539 35.6738 94.3672 45.5177 106.484 45.5177C118.601 45.5177 128.445 35.6894 128.445 23.557C128.445 11.4245 118.616 1.612 106.484 1.612ZM106.484 35.1722C100.089 35.1722 94.8845 29.9837 94.8845 23.557C94.8845 17.1302 100.073 11.9575 106.484 11.9575C112.895 11.9575 118.099 17.1459 118.099 23.557C118.099 29.9681 112.911 35.1722 106.484 35.1722Z" fill="white"/>
<path fill-rule="evenodd" clip-rule="evenodd" d="M317.218 1.612C305.086 1.612 295.273 11.4402 295.273 23.557C295.273 35.6738 305.086 45.5177 317.218 45.5177C329.351 45.5177 339.163 35.6894 339.163 23.557C339.163 11.4245 329.351 1.612 317.218 1.612ZM317.218 35.1722C310.807 35.1722 305.603 29.9837 305.603 23.557C305.603 17.1302 310.792 11.9575 317.218 11.9575C323.645 11.9575 328.834 17.1459 328.834 23.557C328.834 29.9681 323.645 35.1722 317.218 35.1722Z" fill="white"/>
<path fill-rule="evenodd" clip-rule="evenodd" d="M154.732 21.9738C157.914 20.0458 160.045 16.5659 160.045 12.5845C160.045 7.03551 155.939 2.47408 150.625 1.72168V1.59628H132.724V43.4172H150.625V43.3858C150.876 43.3858 151.142 43.4172 151.393 43.4172C157.459 43.4172 162.365 38.4952 162.365 32.429C162.365 27.5384 159.152 23.4002 154.732 21.9738ZM142.599 10.7975H147.552C149.277 10.7975 150.687 12.2083 150.687 13.9325C150.687 15.6568 149.277 17.0675 147.552 17.0675H142.599V10.7975ZM148.085 34.1846H142.599V26.8957H148.085C149.998 26.8957 151.55 28.5259 151.55 30.5323C151.55 32.5387 149.998 34.1689 148.085 34.1689V34.1846Z" fill="white"/>
<path fill-rule="evenodd" clip-rule="evenodd" d="M171.128 0.608765V27.6795C171.128 31.0183 168.416 33.7457 165.077 33.7457V44.5614H165.265C173.793 44.5614 180.909 38.5422 182.602 30.548V0.608765H171.128Z" fill="white"/>
<path fill-rule="evenodd" clip-rule="evenodd" d="M186.113 1.95682V43.4015H208.936V34.1689H197.195V26.8801L208.23 27.0682V17.0205L197.195 16.8324V10.7975H209.547V1.95682H186.113Z" fill="white"/>
<path fill-rule="evenodd" clip-rule="evenodd" d="M212.369 1.59628V10.7975H220.567V43.4015H231.006V10.7975H239.518V1.59628H212.369Z" fill="white"/>
<path fill-rule="evenodd" clip-rule="evenodd" d="M242.496 1.95681V43.4015H253.233V1.59628L242.496 1.95681Z" fill="white"/>
<path fill-rule="evenodd" clip-rule="evenodd" d="M256.071 1.59628L273.219 43.4015H281.433L299.475 1.59628H286.653L277.781 23.6823L267.858 1.59628H256.071Z" fill="white"/>
</svg>
